# xmcd
#
# Track frame offsets:
#	150
#	11861
#	22218
#	32083
#	42332
#	53079
#	65852
#	76260
#	88024
#	98608
#	110579
#	123712
#	136749
#	149774
#
# Disc length: 2155 seconds
#
# Revision: 0
# Processed by: cddbd v1.5.2PL0 Copyright (c) Steve Scherf et al.
# Submitted via: EasyCDDAExtractor 16.0.9.1
#
DISCID=ca08690e
DTITLE=Ray Charles - N-100 Ray Charles  Yes Indeed
DYEAR=1900
DGENRE=R&B
TTITLE0=What Would I Do Without You
TTITLE1=Its All Right
TTITLE2=I Want To Know
TTITLE3=Yes Indeed
TTITLE4=Get On The Right Track Baby
TTITLE5=Talkin Bout You
TTITLE6=Swanee River
TTITLE7=Lonely Avenue
TTITLE8=Blackjack
TTITLE9=The Suns Gonna Shine Again
TTITLE10=I Had A Dream
TTITLE11=I Want A Little Girl
TTITLE12=Heartbreaker
TTITLE13=Leave My Woman Alone
EXTD=
EXTT0=
EXTT1=
EXTT2=
EXTT3=
EXTT4=
EXTT5=
EXTT6=
EXTT7=
EXTT8=
EXTT9=
EXTT10=
EXTT11=
EXTT12=
EXTT13=
PLAYORDER=
